<?xml version="1.0" encoding="UTF-8"?>
<svg width="12px" height="13px" viewBox="0 0 12 13" version="1.1" xmlns="http://www.w3.org/2000/svg" xmlns:xlink="http://www.w3.org/1999/xlink">
    <title>2EF56CBD-72D1-459D-B79F-8928EFB8B98F</title>
    <defs>
        <circle id="path-1" cx="5.63888889" cy="5.63888889" r="5.63888889"></circle>
    </defs>
    <g id="页面命令菜单【加号】" stroke="none" stroke-width="1" fill="none" fill-rule="evenodd">
        <g id="成员" transform="translate(-5, -8)">
            <g id="1.Base基础/1.icon图标/2.normal/user" transform="translate(5.6389, 8.8611)">
                <mask id="mask-2" fill="white">
                    <use xlink:href="#path-1"></use>
                </mask>
                <circle stroke="#D1E0FF" stroke-width="0.8" cx="5.63888889" cy="5.63888889" r="5.23888889"></circle>
                <path d="M5.40778501,7.51688233 C3.83789903,7.60784362 2.59288194,8.90974242 2.59288194,10.5024306 C2.59288194,10.6859502 2.4441099,10.8347222 2.26059028,10.8347222 C2.07707066,10.8347222 1.92829861,10.6859502 1.92829861,10.5024306 C1.92829861,8.96062198 2.8829055,7.6417738 4.23331904,7.10468621 C3.64343951,6.69641942 3.25746528,6.01385718 3.25746528,5.24114583 C3.25746528,3.9870951 4.27407426,2.97048611 5.528125,2.97048611 C6.78217574,2.97048611 7.79878472,3.9870951 7.79878472,5.24114583 C7.79878472,5.99658741 7.42987041,6.66586444 6.86237057,7.07864814 C8.25031084,7.59555519 9.23871528,8.93356576 9.23871528,10.5024306 C9.23871528,10.6859502 9.08994323,10.8347222 8.90642361,10.8347222 C8.72290399,10.8347222 8.57413194,10.6859502 8.57413194,10.5024306 C8.57413194,8.85075398 7.23518352,7.51180556 5.58350694,7.51180556 Z M5.528125,3.63506944 C4.6411135,3.63506944 3.92204861,4.35413434 3.92204861,5.24114583 C3.92204861,6.12815733 4.6411135,6.84722222 5.528125,6.84722222 C6.4151365,6.84722222 7.13420139,6.12815733 7.13420139,5.24114583 C7.13420139,4.35413434 6.4151365,3.63506944 5.528125,3.63506944 Z" id="形状结合" stroke="#6698FF" stroke-width="0.5" fill="#6698FF" mask="url(#mask-2)"></path>
            </g>
        </g>
    </g>
</svg>