<?xml version="1.0" encoding="UTF-8"?>
<svg width="15px" height="13px" viewBox="0 0 15 13" version="1.1" xmlns="http://www.w3.org/2000/svg" xmlns:xlink="http://www.w3.org/1999/xlink">
    <title>19D74B88-FEFA-49C7-81A1-F9BBC59D82B0</title>
    <g id="1.Base基础/1.icon图标/11.editor/header-4" stroke="none" stroke-width="1" fill="none" fill-rule="evenodd" transform="translate(-1, -2)">
        <path d="M8.6,2 C8.93137085,2 9.2,2.26862915 9.2,2.6 L9.2,13.4 C9.2,13.7313708 8.93137085,14 8.6,14 C8.26862915,14 8,13.7313708 8,13.4 L7.999,8.4 L2.2,8.4 L2.2,13.4 C2.2,13.7313708 1.93137085,14 1.6,14 C1.26862915,14 1,13.7313708 1,13.4 L1,2.6 C1,2.26862915 1.26862915,2 1.6,2 C1.93137085,2 2.2,2.26862915 2.2,2.6 L2.2,7.2 L7.999,7.2 L8,2.6 C8,2.26862915 8.26862915,2 8.6,2 Z M13.4093228,5.91341961 C13.7406441,5.91915017 14.0045876,6.19238469 13.998857,6.52370599 L13.9382755,9.99126303 L14.8179917,9.99134588 C15.1162255,9.99134588 15.3636385,10.2089355 15.4101387,10.4940228 L15.4179917,10.5913459 C15.4179917,10.9227167 15.1493626,11.1913459 14.8179917,11.1913459 L13.9182755,11.191263 L13.8794422,13.4278503 C13.8742847,13.7260395 13.652449,13.9696526 13.3666002,14.0112157 L13.2691559,14.0173845 C12.9378346,14.0116539 12.6738911,13.7384194 12.6796217,13.4070981 L12.7172755,11.191263 L10.5912754,11.1913459 C10.1454143,11.1913459 9.86643429,10.7287014 10.0448619,10.3426594 L10.0902034,10.2613052 L12.776267,6.18328918 C12.9048512,5.9880711 13.1278997,5.89246083 13.3452953,5.91706111 Z M12.7382755,9.99126303 L12.7662755,8.38026303 L11.7049365,9.99134588 L12.7382755,9.99126303 Z" id="形状结合" fill="#999999"></path>
    </g>
</svg>