<?xml version="1.0" encoding="UTF-8"?>
<svg width="16px" height="16px" viewBox="0 0 16 16" version="1.1" xmlns="http://www.w3.org/2000/svg" xmlns:xlink="http://www.w3.org/1999/xlink">
    <title>6769B4AA-A3E4-4D29-BBE3-5277EE4CDBF1</title>
    <g id="1.Base基础/1.icon图标/8.rd/pipeline-square-fill-" stroke="none" stroke-width="1" fill="none" fill-rule="evenodd">
        <path d="M12.767,-6.56363852e-13 C14.522,-6.56363852e-13 15.959,1.437 15.959,3.192 L15.959,12.767 C15.959,14.522 14.522,15.958 12.767,15.958 L3.192,15.958 C1.436,15.958 -7.99360578e-14,14.522 -7.99360578e-14,12.767 L-7.99360578e-14,3.192 C-7.99360578e-14,1.437 1.436,-6.56363852e-13 3.192,-6.56363852e-13 Z M6.58074701,5.00179976 C6.31311055,5.81511445 5.57155151,6.37291667 4.72727265,6.37291667 C4.26226839,6.37291667 3.83503965,6.20528471 3.49917711,5.9252421 L3.5,11.2000001 C3.5,12.1941126 4.3058874,13 5.29999989,13 L9.47175123,13.0002316 C9.15524582,12.6823757 8.94183881,12.2542277 8.89083457,11.7729167 L5.3090908,11.7729167 C4.6297806,11.7729167 4.07909087,11.1992815 4.07909087,10.4916667 L4.07909087,8.76177208 C4.07909087,8.05415725 4.6297806,7.48052208 5.3090908,7.48052208 L10.1826131,7.51157387 L10.6909087,7.48052208 C10.895254,7.48052208 11.0609086,7.30796516 11.0609086,7.09510542 L11.0609086,5.40833333 C11.0609086,5.19547359 10.895254,5.02291667 10.6909087,5.02291667 Z M10.8363632,10.4229167 C10.2300033,10.4229167 9.73909054,10.9279164 9.73909054,11.55 C9.73909054,12.1720836 10.2300033,12.6770833 10.8363632,12.6770833 C11.4427231,12.6770833 11.9336359,12.1720836 11.9336359,11.55 C11.9336359,10.9279164 11.4427231,10.4229167 10.8363632,10.4229167 Z M10.7000001,3 L6.18569725,3.00069398 C6.45034348,3.30575764 6.62701347,3.69499814 6.67280129,4.12708333 L10.6909087,4.12708333 C11.3702189,4.12708333 11.9209086,4.7007185 11.9209086,5.40833333 L11.9209086,7.09510542 C11.9209086,7.80272025 11.3702189,8.37635542 10.6909994,8.37635527 L10.1836734,8.37786629 L5.3090908,8.37635542 C5.10474546,8.37635542 4.93909082,8.54891233 4.93909082,8.76177208 L4.93909082,10.4916667 C4.93909082,10.7045264 5.10474546,10.8770833 5.3090908,10.8770833 L8.97970993,10.9079325 C9.24397544,10.09072 9.98761078,9.52708333 10.8363632,9.52708333 C11.5393453,9.52708333 12.1559927,9.91020038 12.5011438,10.4856387 L12.5,4.79999989 C12.5,3.8058874 11.6941126,3 10.7000001,3 Z M4.72727265,3.22291667 C4.12091277,3.22291667 3.62999999,3.72791644 3.62999999,4.35 C3.62999999,4.97208356 4.12091277,5.47708333 4.72727265,5.47708333 C5.33363254,5.47708333 5.82454532,4.97208356 5.82454532,4.35 C5.82454532,3.72791644 5.33363254,3.22291667 4.72727265,3.22291667 Z" id="形状结合" fill="#67D96A"></path>
    </g>
</svg>