<?xml version="1.0" encoding="UTF-8"?>
<svg width="16px" height="16px" viewBox="0 0 16 16" version="1.1" xmlns="http://www.w3.org/2000/svg" xmlns:xlink="http://www.w3.org/1999/xlink">
    <title>A8C55C60-8D8A-4A81-A7D8-836149164CB2</title>
    <g id="1.Base基础/1.icon图标/3.tips/info-circle" stroke="none" stroke-width="1" fill="none" fill-rule="evenodd">
        <path d="M7.9886,0 C12.4006,0 15.9766,3.577 15.9766,7.988 C15.9766,12.4 12.4006,15.977 7.9886,15.977 C3.5766,15.977 -0.0004,12.4 -0.0004,7.988 C-0.0004,3.577 3.5766,0 7.9886,0 Z M7.9886,1.2 C4.2456,1.2 1.1996,4.245 1.1996,7.988 C1.1996,11.731 4.2456,14.776 7.9886,14.776 C11.7316,14.776 14.7776,11.731 14.7776,7.988 C14.7776,4.245 11.7316,1.2 7.9886,1.2 Z M8.681,6.9318 L8.681,12.0188 L7.281,12.0188 L7.281,6.9318 L8.681,6.9318 Z M8.689,3.9318 L8.689,5.6548 L7.289,5.6548 L7.289,3.9318 L8.689,3.9318 Z" id="形状结合" fill="#999999"></path>
    </g>
</svg>